<?xml version="1.0" encoding="UTF-8"?>
<svg id="katman_1" xmlns="http://www.w3.org/2000/svg" version="1.1" viewBox="0 0 1480 740">
  <!-- Generator: Adobe Illustrator 30.3.0, SVG Export Plug-In . SVG Version: 2.1.1 Build 126)  -->
  <defs>
    <style>
      .st0 {
        fill: #fff;
      }
    </style>
  </defs>
  <path class="st0" d="M0,391V0h1480v407c-28.05-6.18-56.07-10.81-85.26-12.71-39.33-1.26-67.93-.87-105.69,12.7l-31.39-185.41-5.23-33.97c-1.25-8.14-6.09-13.78-12.71-18.49l-84.63-60.12c-2.8-1.99-7.87-3.41-10.65-2.81-4.59.99-5.41,5.77-5.76,10.08-17.22-6.97-35.05-9.31-53.86-6.36l-165.82,26-111.32,18.69c-4.94.83-10.03,4.9-11.72,9.09-2.36,5.84-.41,11,.6,17.07l41.75,248.8c2.24,13.32,5.87,25.11,6.73,38.37,1.16,17.74-4.91,34.21-18.37,45.82-29.28,25.25-79.72,31.75-117.02,33.84-8.62.48-16.95.62-25.51.1l-11.23-.68c-31.42-1.9-61.67-6.64-92.52-13.38-34.94-7.63-68.59-16.06-102.43-27.66l-122.81-42.1-87.17-29.94c-54.81-18.83-142.03-40.85-199.31-44.43-18.57-1.16-50.94-1.12-68.68,1.5Z"/>
  <path class="st0" d="M1480,413.97v326.03H0v-343l12.06-.75,11.07-.95c11.97-1.03,23.76-.85,35.74,0l10.22.73c70.88,5.06,159.45,31.17,227.04,54.81l106.76,37.34c76.96,26.92,179.56,59.34,260.01,64.75l11.25.76c14.54.98,28.94.93,43.32-.12l14.12-1.04c19.7-1.45,38.65-4.55,57.5-10.31,29.37-8.97,60.91-29.61,61.99-63.15.39-12.28-.91-23.66-3.58-35.51-4.39-19.5-6.71-38.33-10.03-58.26l-35.55-213.03c-1.08-6.46,3.19-10.74,8.75-11.67l154.26-25.66,116.92-18.13c16.29-2.53,43.32-.77,57.77,7.23l3.59,21.86,6.78,38.06c.97,5.42,4.26,10.62,10.09,10.88,3.49.16,8.47.75,11.85.14l51.14-9.17c2.66-.48,6.55-3.86,6.87-6.71.64-5.86-3.84-8.97-6.73-13.34,10.7,7.67,21.08,11.2,23.14,24.77l4.52,29.73,32.07,189.04c-24.93,10.15-48.57,23.03-72.2,36.29-7.39,4.14-14.63,7.16-22.45,9.79-8.54,2.17-17.43,2.99-25.31-1.63,6.06-20.7,7.02-53.96,5.6-75.5-2.22-33.63-11.39-65.89-27.25-95.34-3.18-5.92-8.35-9.41-14.59-10.5-13.04-16.14-39.65-14.08-54.43-1.22-9.32,8.1-14.77,23.54-8.98,32.79,6.08,9.71,18.04,14.08,29.65,12.89,17.99-1.85,17.16-31.62,31.21-37.03,6.92,10.74,8.16,24.21,2.04,35.46-4.84,8.89-14.02,13.13-23.95,15.18-11.63,2.39-24.06-2.58-31.94-11.85-5.05-5.94-10.31-11.23-18.45-12.65-42.78-7.45-81.43,36.95-97.92,71.98l-9.3,19.75c-10.5,22.3-19.89,43.97-41.35,58.61l-23.16,15.81c-14.03,9.57-23.51,23.82-25.39,40.8-.68,6.15-1.1,11.9,0,18.27l18.37,106.64c.8,4.64,2.92,9.79,6.13,12.81,4.56,4.29,11.09,3.5,16.66,2.53l28.48-4.96,133.4-22.45,243.95-40.71c5.99-1,12.44-4.45,13.8-10.3.82-3.53.93-8.97.29-12.48l-3.89-21.38-21.69-127.3c35.53-12.67,63.55-14.91,100.51-13.26,30.49,2.13,60.09,6.18,89.24,13.66Z"/>
  <g>
    <path d="M1480,407v6.97c-29.15-7.48-58.76-11.53-89.24-13.66-36.96-1.65-64.98.59-100.51,13.26l21.69,127.3,3.89,21.38c.64,3.51.53,8.95-.29,12.48-1.36,5.85-7.8,9.3-13.8,10.3l-243.95,40.71-133.4,22.45-28.48,4.96c-5.57.97-12.1,1.76-16.66-2.53-3.21-3.02-5.33-8.17-6.13-12.81l-18.37-106.64c-1.1-6.37-.68-12.12,0-18.27,1.87-16.98,11.36-31.23,25.39-40.8l23.16-15.81c21.46-14.64,30.85-36.31,41.35-58.61l9.3-19.75c16.49-35.03,55.15-79.43,97.92-71.98,8.14,1.42,13.41,6.7,18.45,12.65,7.88,9.28,20.31,14.24,31.94,11.85,9.94-2.04,19.11-6.28,23.95-15.18,6.12-11.24,4.88-24.71-2.04-35.46-14.05,5.41-13.21,35.18-31.21,37.03-11.61,1.19-23.57-3.17-29.65-12.89-5.79-9.25-.33-24.69,8.98-32.79,14.78-12.86,41.39-14.92,54.43,1.22,6.23,1.09,11.4,4.58,14.59,10.5,15.86,29.45,25.03,61.71,27.25,95.34,1.42,21.53.46,54.79-5.6,75.5,7.88,4.62,16.76,3.8,25.31,1.63,7.82-2.63,15.06-5.65,22.45-9.79,23.64-13.26,47.27-26.14,72.2-36.29l-32.07-189.04-4.52-29.73c-2.06-13.57-12.44-17.1-23.14-24.77,2.88,4.37,7.37,7.48,6.73,13.34-.31,2.85-4.21,6.23-6.87,6.71l-51.14,9.17c-3.37.6-8.36.02-11.85-.14-5.83-.26-9.12-5.47-10.09-10.88l-6.78-38.06-3.59-21.86c-14.45-8-41.48-9.76-57.77-7.23l-116.92,18.13-154.26,25.66c-5.55.92-9.82,5.2-8.75,11.67l35.55,213.03c3.33,19.93,5.65,38.76,10.03,58.26,2.67,11.85,3.97,23.24,3.58,35.51-1.08,33.54-32.62,54.18-61.99,63.15-18.85,5.76-37.8,8.86-57.5,10.31l-14.12,1.04c-14.39,1.06-28.78,1.1-43.32.12l-11.25-.76c-80.45-5.4-183.05-37.83-260.01-64.75l-106.76-37.34c-67.6-23.64-156.16-49.76-227.04-54.81l-10.22-.73c-11.98-.85-23.77-1.04-35.74,0l-11.07.95-12.06.75v-6c17.74-2.61,50.11-2.66,68.68-1.5,57.28,3.58,144.5,25.61,199.31,44.43l87.17,29.94,122.81,42.1c33.84,11.6,67.49,20.03,102.43,27.66,30.85,6.74,61.1,11.48,92.52,13.38l11.23.68c8.56.52,16.89.38,25.51-.1,37.3-2.09,87.73-8.59,117.02-33.84,13.46-11.6,19.53-28.08,18.37-45.82-.87-13.27-4.5-25.05-6.73-38.37l-41.75-248.8c-1.02-6.07-2.96-11.23-.6-17.07,1.69-4.19,6.78-8.26,11.72-9.09l111.32-18.69,165.82-26c18.81-2.95,36.64-.61,53.86,6.36.34-4.31,1.17-9.09,5.76-10.08,2.78-.6,7.86.82,10.65,2.81l84.63,60.12c6.63,4.71,11.46,10.35,12.71,18.49l5.23,33.97,31.39,185.41c37.77-13.57,66.36-13.96,105.69-12.7,29.19,1.9,57.21,6.52,85.26,12.71ZM1202.63,150.82l-44.1-31.36c-3.83-2.72-7.01-5.07-11.01-7.25-1.44,2.2-2.33,6.38-.8,8l65.24,38.12c-2.8-2.7-5.77-4.97-9.33-7.5ZM1222.82,179.28c.15-2.83-1.29-6.13-3.56-7.64-18.13-12.08-36.57-22.45-55.37-33.5l-16.55-9.73,6.94,43.36c.73,4.58,1.96,9.24,3.52,13.69,1.27,3.63,7.62,4.27,11.27,3.6l53.75-9.77ZM1099.69,304.26l11.23-21.43c1.51-2.88,5.33-5.43,8.54-8.24-10.97-10.86-34.95-8.56-45.95,4.77-4.73,5.73-7.5,13.86-4.42,20.6,4.04,8.83,24.89,15.2,30.59,4.31ZM1257.48,428.08l-50.02,26.38c-14.53,7.66-33.2,12.66-48.11,4.9-5.48,5.22-11.64,7.71-19.2,9l-133.97,22.76-35.63,5.57c-4.92.77-12,.48-14.63-4.62-2.5-4.84-.44-11.31,1.87-16.23l23.01-48.95c7.05-15,16.72-38.53,36.1-31.62,14.27,5.09,24.42,17.64,38.17,26.19l17.73-18.63c5.68-5.97,14.2-6.61,20.32-.75l20.32,19.44c12.89,12.34,27.39,21.36,43.25,29.55,11.74-45.57,6.59-94.16-8.98-137.61-3.67-10.24-6.7-19.81-12.36-28.7l.76,15.23c.57,11.41-4.34,20.98-12.91,28.37s-19.58,9.7-31.46,8.58c-10.24-.97-19.8-7.09-26.9-14.75-7.42-8-16.63-11.81-28.03-10.21-29.4,4.14-54.2,29.24-68.87,53.99-16.01,27.01-24.14,58.28-44.16,80.7-16.33,18.28-24.93,19.89-43.09,33.1-10.34,7.52-17.74,18.42-19.29,31.59-1.91,16.17.92,26.23,3.65,41.73l15.21,86.4c.94,5.32,5.83,8.33,10.91,7.49l282.64-47,129.27-21.75c4.06-.68,7.82-4.77,7.02-9.47l-26.01-152.62c-9.37,3.67-17.61,7.22-26.6,11.96ZM1081.28,404.76c-2.39.96-4.47,3.32-6.32,5.27l-12.6,13.3c-5.24,5.53,7.94,4.51,5.6,18.83-.72,4.41-4.52,7.14-8.28,8.24-4.12,1.2-9.22.62-11.89-3.22-6.81-9.82,4.81-18.6,1.24-21.45l-17.05-13.65c-6.41-5.13-12.79-10.7-21.2-11.53-5.74-.57-11.19,4.67-13.65,9.59l-15.66,31.26-19.83,42.36c-.59,1.25-.75,4.07-.2,5.11s3.3,2.3,4.62,2.1l38.94-6.07,88.68-15.14,52.53-9.52c2.1-.38,4.86-2.4,6.54-3.68-21.19-10.83-39.03-25.05-55.63-41.68-3.01-3.02-12.16-11.61-15.86-10.11ZM1060.65,439.08c.72-2.87-2.89-6.8-5.17-6.79-2.71,2.29-4.14,8.04-2.63,10.6.64,1.09,4.08,1.38,5.05.71s2.24-2.46,2.76-4.53Z"/>
    <path class="st0" d="M1257.48,428.08c8.99-4.74,17.23-8.29,26.6-11.96l26.01,152.62c.8,4.7-2.96,8.79-7.02,9.47l-129.27,21.75-282.64,47c-5.08.84-9.97-2.17-10.91-7.49l-15.21-86.4c-2.73-15.49-5.56-25.56-3.65-41.73,1.56-13.17,8.95-24.07,19.29-31.59,18.16-13.21,26.76-14.82,43.09-33.1,20.02-22.42,28.15-53.69,44.16-80.7,14.67-24.75,39.47-49.85,68.87-53.99,11.4-1.61,20.62,2.2,28.03,10.21,7.1,7.66,16.67,13.79,26.9,14.75,11.88,1.12,22.88-1.17,31.46-8.58s13.48-16.96,12.91-28.37l-.76-15.23c5.65,8.89,8.69,18.46,12.36,28.7,15.57,43.45,20.72,92.05,8.98,137.61-15.86-8.19-30.36-17.21-43.25-29.55l-20.32-19.44c-6.12-5.86-14.64-5.22-20.32.75l-17.73,18.63c-13.75-8.55-23.9-21.1-38.17-26.19-19.38-6.91-29.05,16.63-36.1,31.62l-23.01,48.95c-2.31,4.92-4.37,11.39-1.87,16.23,2.63,5.1,9.71,5.39,14.63,4.62l35.63-5.57,133.97-22.76c7.56-1.28,13.72-3.78,19.2-9,14.91,7.77,33.59,2.77,48.11-4.9l50.02-26.38Z"/>
    <path class="st0" d="M1081.28,404.76c3.7-1.49,12.85,7.1,15.86,10.11,16.61,16.64,34.45,30.86,55.63,41.68-1.69,1.29-4.45,3.3-6.54,3.68l-52.53,9.52-88.68,15.14-38.94,6.07c-1.32.21-4.07-1.05-4.62-2.1s-.39-3.86.2-5.11l19.83-42.36,15.66-31.26c2.46-4.91,7.9-10.15,13.65-9.59,8.41.83,14.8,6.4,21.2,11.53l17.05,13.65c3.57,2.85-8.05,11.64-1.24,21.45,2.66,3.84,7.77,4.42,11.89,3.22,3.76-1.1,7.56-3.83,8.28-8.24,2.34-14.32-10.84-13.3-5.6-18.83l12.6-13.3c1.85-1.95,3.93-4.31,6.32-5.27Z"/>
    <path class="st0" d="M1222.82,179.28l-53.75,9.77c-3.65.66-10,.03-11.27-3.6-1.56-4.45-2.78-9.11-3.52-13.69l-6.94-43.36,16.55,9.73c18.8,11.05,37.24,21.42,55.37,33.5,2.27,1.51,3.71,4.81,3.56,7.64Z"/>
    <path class="st0" d="M1099.69,304.26c-5.71,10.89-26.56,4.53-30.59-4.31-3.08-6.74-.31-14.87,4.42-20.6,11-13.33,34.98-15.63,45.95-4.77-3.21,2.81-7.04,5.37-8.54,8.24l-11.23,21.43Z"/>
    <path class="st0" d="M1202.63,150.82c3.56,2.53,6.52,4.81,9.33,7.5l-65.24-38.12c-1.53-1.62-.64-5.8.8-8,4,2.18,7.19,4.53,11.01,7.25l44.1,31.36Z"/>
    <path class="st0" d="M1060.65,439.08c-.52,2.07-1.8,3.87-2.76,4.53s-4.4.37-5.05-.71c-1.51-2.56-.08-8.31,2.63-10.6,2.28,0,5.89,3.91,5.17,6.79Z"/>
  </g>
</svg>