<?xml version="1.0" encoding="UTF-8"?>
<svg id="katman_1" xmlns="http://www.w3.org/2000/svg" version="1.1" viewBox="0 0 1060 530">
  <!-- Generator: Adobe Illustrator 30.3.0, SVG Export Plug-In . SVG Version: 2.1.1 Build 126)  -->
  <defs>
    <style>
      .st0 {
        fill: #fff;
      }
    </style>
  </defs>
  <path class="st0" d="M0,293V0h1060v280l-10.14-.7c-36.69-2.52-70.24,2.58-106,10.64-39.03,8.8-76.25,20.62-113.97,33.86l-79.27,27.81c-42.97,15.08-115.35,36.52-159.57,39.52l-18.06,1.23c-7.84.53-15.13.58-22.98-.02l-16.01-1.24c-10.49-.81-20.43-3-30.58-5.57-23.3-5.91-47.5-18.43-48.59-45.39-.3-7.35,1.19-12.99,2.4-20.23l33.01-196.58c1.14-6.8-3.19-11.57-9.07-12.54l-132.04-21.88-68.1-10.11c-13.1-1.94-24.63-.03-36.61,4.05-.59-2.42-1.23-5.38-2.54-6.33s-5.73-.66-7.08.29l-42.26,29.7c-7.96,5.59-15.82,10.52-23.29,16.76-4.2,3.51-5.45,9.27-6.37,14.73l-24.03,141.87-23.88.39-17.99,1-15.85,1.06c-27.61,1.84-54.3,6.44-81.12,10.68Z"/>
  <path class="st0" d="M1060,284v246H0v-232c31.89-7.01,64.38-10.94,97.34-12.54l21.07-1.02c6.49-.32,12.78-.48,19.77-.28l-18.51,108.33c-1.3,7.63-5.51,24.02,5.35,25.84l297.8,49.82c5.87.98,10.6-5.02,11.43-9.91l13.65-81.11c1.7-10.09-1.32-21.05-7.27-28.59-7.45-9.44-16.98-15.24-27.5-20.78-23.95-12.63-49.29-21.51-76.12-26.7-4.48-.87-11.34-.24-15.72.08l-61.34,22.81c-3.44,1.28-8.55-.3-10.91-2.26-2.16-1.79-4.67-6.18-4.13-9.58l3.59-22.46,18.47,2.5,46.01,7.06c14.47,2.22,27.2-.47,40.66-5.45,5.08-1.88,10-3.28,14.11-7.24,5.48-5.28,6.59-16.57-.36-22.28l-84.22-69.15c-4.83-3.96-11.69-3.83-16.6-1.33-4.36,2.22-7.65,6.7-8.59,12.37l-13.1,78.79-27.96-2.62-14.87-1.15-17.09-.8-41.71-.43,24.94-147.37c3.48-6.32,9.85-10.39,15.58-13.58-2.26,2.73-5,5.84-4.4,9.76.4,2.6,3.95,4.01,6.36,4.45l37.25,6.79c4.35.79,11.53-.61,12.4-5.51l8.13-45.78c9.6-4.42,19.77-7.49,30.17-6.4,15.12,1.57,29.12,3.37,44.29,5.87l156,25.7c4.56.75,11.52,1.2,12.33,7.38l-30.33,180.58-5.05,27.18c-3.67,19.76,4.39,39.04,21.96,49.17,4.61,2.66,9.46,5.34,14.53,7.3,23.71,9.21,60.53,12.48,85.58,10.9l19.07-1.21c51.58-3.26,136.58-30.58,186.75-48.26l54.84-19.33c54.29-19.13,124.2-41.16,181.27-44.5,17.19-1,17.04-.84,34,.22l11.07.69Z"/>
  <g>
    <path d="M1060,280v4l-11.07-.69c-16.96-1.06-16.81-1.23-34-.22-57.07,3.33-126.98,25.36-181.27,44.5l-54.84,19.33c-50.17,17.68-135.17,45-186.75,48.26l-19.07,1.21c-25.05,1.58-61.87-1.69-85.58-10.9-5.06-1.97-9.92-4.65-14.53-7.3-17.57-10.13-25.63-29.41-21.96-49.17l5.05-27.18,30.33-180.58c-.81-6.17-7.77-6.62-12.33-7.38l-156-25.7c-15.17-2.5-29.17-4.29-44.29-5.87-10.4-1.08-20.57,1.99-30.17,6.4l-8.13,45.78c-.87,4.9-8.05,6.3-12.4,5.51l-37.25-6.79c-2.41-.44-5.96-1.85-6.36-4.45-.61-3.93,2.14-7.04,4.4-9.76-5.73,3.18-12.1,7.25-15.58,13.58l-24.94,147.37,41.71.43,17.09.8,14.87,1.15,27.96,2.62,13.1-78.79c.94-5.67,4.23-10.14,8.59-12.37,4.9-2.5,11.77-2.64,16.6,1.33l84.22,69.15c6.95,5.71,5.84,17,.36,22.28-4.11,3.96-9.03,5.36-14.11,7.24-13.46,4.98-26.19,7.67-40.66,5.45l-46.01-7.06-18.47-2.5-3.59,22.46c-.54,3.4,1.97,7.79,4.13,9.58,2.36,1.96,7.46,3.54,10.91,2.26l61.34-22.81c4.38-.32,11.23-.95,15.72-.08,26.83,5.19,52.17,14.07,76.12,26.7,10.52,5.55,20.05,11.35,27.5,20.78,5.95,7.54,8.97,18.5,7.27,28.59l-13.65,81.11c-.82,4.89-5.56,10.89-11.43,9.91l-297.8-49.82c-10.86-1.82-6.66-18.21-5.35-25.84l18.51-108.33c-6.98-.2-13.28-.04-19.77.28l-21.07,1.02c-32.96,1.6-65.44,5.54-97.34,12.54v-5c26.81-4.24,53.51-8.84,81.12-10.68l15.85-1.06,17.99-1,23.88-.39,24.03-141.87c.92-5.46,2.17-11.22,6.37-14.73,7.48-6.24,15.33-11.17,23.29-16.76l42.26-29.7c1.35-.95,5.77-1.24,7.08-.29s1.96,3.92,2.54,6.33c11.98-4.08,23.52-5.99,36.61-4.05l68.1,10.11,132.04,21.88c5.88.97,10.21,5.74,9.07,12.54l-33.01,196.58c-1.21,7.24-2.7,12.88-2.4,20.23,1.09,26.96,25.29,39.48,48.59,45.39,10.15,2.57,20.09,4.76,30.58,5.57l16.01,1.24c7.85.61,15.15.55,22.98.02l18.06-1.23c44.22-3,116.6-24.45,159.57-39.52l79.27-27.81c37.72-13.24,74.94-25.05,113.97-33.86,35.76-8.07,69.31-13.16,106-10.64l10.14.7ZM238.94,85.79c0-1.77.27-4.77-.52-4.59l-3.45.78-38.16,28.1c14.72-7.65,27.93-15.9,42.12-24.3ZM224.71,135.9c3.61.43,6.61-1.85,7.14-5.01l6.43-38.87-50.53,29.68c-1.89,1.11-3.14,3.92-3.8,6.7l40.77,7.49ZM367.67,276.28c.5-4.22-2.99-8.61-5.8-11.01l-7.73-6.59-73.06-59.55c-3.77-3.07-8.13-3.2-11.84-1.4-2.99,1.45-6.28,4.55-6.97,8.75l-13.08,79.04c20.96,2.3,41.51,5.8,62.79,9.44,7.56,1.29,14.51,1.19,21.95.25l21.53-6.76c5.48-1.72,11.38-5.2,12.2-12.16ZM338.56,305.49c-4.63-1.12-12.31-1.37-16.73.28l-53.2,19.89c-6.47,2.42-13.93,3.83-20.51,1.07-6.16-2.58-8.17-10.35-7.19-16.72l3.2-20.8-35.13-3.15-11.14-.7-21.36-.92c-11.43-.49-22.74-.46-33.99-.38l-20.68,120.72c-.77,4.5.89,8.87,5.93,9.72l277.01,46.37,14.73,2.89c4.08.8,9.45-.7,10.37-6.12l13.92-81.65c1.68-9.86-2.58-21.49-9.64-28.02-23.06-21.35-65.26-35.14-95.62-42.47Z"/>
    <path class="st0" d="M338.56,305.49c30.36,7.33,72.56,21.12,95.62,42.47,7.06,6.54,11.32,18.16,9.64,28.02l-13.92,81.65c-.92,5.41-6.29,6.92-10.37,6.12l-14.73-2.89-277.01-46.37c-5.04-.84-6.7-5.22-5.93-9.72l20.68-120.72c11.24-.08,22.56-.11,33.99.38l21.36.92,11.14.7,35.13,3.15-3.2,20.8c-.98,6.38,1.03,14.14,7.19,16.72,6.58,2.76,14.03,1.35,20.51-1.07l53.2-19.89c4.41-1.65,12.09-1.4,16.73-.28Z"/>
    <path class="st0" d="M367.67,276.28c-.82,6.96-6.72,10.44-12.2,12.16l-21.53,6.76c-7.44.94-14.39,1.04-21.95-.25-21.28-3.64-41.84-7.14-62.79-9.44l13.08-79.04c.7-4.2,3.98-7.3,6.97-8.75,3.7-1.8,8.07-1.67,11.84,1.4l73.06,59.55,7.73,6.59c2.81,2.39,6.29,6.79,5.8,11.01Z"/>
    <path class="st0" d="M224.71,135.9l-40.77-7.49c.66-2.78,1.91-5.59,3.8-6.7l50.53-29.68-6.43,38.87c-.52,3.16-3.53,5.44-7.14,5.01Z"/>
    <path class="st0" d="M238.94,85.79c-14.19,8.41-27.4,16.65-42.12,24.3l38.16-28.1,3.45-.78c.79-.18.51,2.82.52,4.59Z"/>
  </g>
</svg>
